# xmcd
#
# Track frame offsets:
#	150
#	12742
#	25696
#	37146
#	46962
#	59365
#	69566
#	80792
#	92694
#	106226
#
# Disc length: 1619 seconds
# Revision: 0
# Processed by: cddbd v1.5.2PL0 Copyright (c) Steve Scherf et al.
# Submitted via: dBpowerAMP V12.0
#
DISCID=8406510a
DTITLE=Wayne Elliott - Intentions
DYEAR=1900
DGENRE=Country
TTITLE0=Where I Am is Where I Want to Be
TTITLE1=Twinkle Twinkle Lucky Star
TTITLE2=Intentions
TTITLE3=Happy Go Lucky Guitar
TTITLE4=Crazy
TTITLE5=Ringer From The Top End
TTITLE6=Janine
TTITLE7=Love Sick Blues
TTITLE8=Big River
TTITLE9=Apache
EXTD=
EXTT0=
EXTT1=
EXTT2=
EXTT3=
EXTT4=
EXTT5=
EXTT6=
EXTT7=
EXTT8=
EXTT9=
PLAYORDER=
